<?xml version="1.0" standalone="no"?>
<!DOCTYPE svg PUBLIC "-//W3C//DTD SVG 20010904//EN"
 "http://www.w3.org/TR/2001/REC-SVG-20010904/DTD/svg10.dtd">
<svg version="1.0" xmlns="http://www.w3.org/2000/svg"
 width="55.000000pt" height="41.000000pt" viewBox="0 0 55.000000 41.000000"
 preserveAspectRatio="xMidYMid meet">

<g transform="translate(0.000000,41.000000) scale(0.100000,-0.100000)"
fill="#000000" stroke="none">
<path d="M0 205 l0 -205 275 0 275 0 0 205 0 205 -275 0 -275 0 0 -205z m280
145 c-5 -10 -10 -35 -10 -54 0 -32 3 -36 25 -36 14 0 25 -5 25 -11 0 -8 16
-10 51 -6 44 6 50 4 45 -10 -4 -9 -9 -44 -13 -77 -5 -58 -24 -96 -46 -96 -5 0
-15 -8 -22 -17 -12 -15 -15 -14 -43 14 -17 17 -56 41 -85 53 l-54 23 -6 96
c-5 79 -3 99 10 113 23 26 33 22 33 -11 0 -21 6 -30 21 -34 22 -6 22 -28 1
-35 -8 -2 -10 3 -5 14 4 11 3 15 -4 11 -12 -8 -23 14 -23 46 0 18 -2 19 -13 7
-10 -11 -12 -39 -9 -102 4 -78 6 -89 28 -103 13 -8 24 -11 24 -6 0 5 -4 13
-10 16 -5 3 -10 27 -10 52 0 45 0 46 20 28 14 -13 20 -31 20 -64 0 -34 5 -49
19 -58 17 -11 18 -8 15 35 l-3 47 12 -47 c7 -26 23 -58 36 -70 17 -17 22 -18
18 -6 -7 21 3 31 18 18 21 -17 42 21 49 88 3 36 2 62 -4 62 -17 0 -23 -24 -21
-78 2 -41 -1 -53 -11 -50 -9 4 -12 22 -9 69 3 57 2 62 -13 50 -11 -9 -16 -30
-16 -67 0 -34 -4 -54 -11 -54 -8 0 -10 19 -6 61 5 57 4 60 -12 45 -10 -9 -20
-16 -23 -16 -11 0 -15 56 -9 112 6 51 5 56 -10 47 -10 -5 -20 -14 -22 -21 -4
-9 -6 -8 -6 2 -1 17 48 52 61 44 5 -3 4 -14 -2 -24z"/>
<path d="M268 243 c6 -2 18 -2 25 0 6 3 1 5 -13 5 -14 0 -19 -2 -12 -5z"/>
</g>
</svg>
